<svg xmlns="http://www.w3.org/2000/svg" width="48" height="48" viewBox="0 0 48 48">
    <defs>
        <clipPath id="5lxfnkp6ba">
            <path data-name="사각형 368" style="fill:none" d="M0 0h40.128v40.023H0z"/>
        </clipPath>
    </defs>
    <path data-name="사각형 283" style="fill:none" d="M0 0h48v48H0z"/>
    <g data-name="그룹 496">
        <g data-name="그룹 495" style="clip-path:url(#5lxfnkp6ba)" transform="translate(3.936 3.988)">
            <path data-name="패스 8152" d="M36.033 12.506a1.6 1.6 0 0 1 0 3.192H22.817a1.6 1.6 0 0 1 0-3.192zm0-2.5H22.817a4.1 4.1 0 0 0 0 8.192h13.216a4.1 4.1 0 0 0 0-8.192"/>
            <path data-name="패스 8153" d="M29.424 2.5a2.107 2.107 0 0 1 2.06 1.9v3.3c1.467.442 2.481 1.329 2.481 2.364h-9.082c0-1.035 1.014-1.922 2.481-2.364V4.4a2.107 2.107 0 0 1 2.06-1.9zm0-2.5a4.6 4.6 0 0 0-4.56 4.4v1.691a4.681 4.681 0 0 0-2.481 3.979v2.5h14.082v-2.5a4.681 4.681 0 0 0-2.481-3.979V4.4a4.6 4.6 0 0 0-4.56-4.4"/>
            <path data-name="패스 8154" d="M33.639 18.1a3.5 3.5 0 0 1 3.5 3.5v13.87a2 2 0 0 1-2 2H23.715a2 2 0 0 1-2-2V21.6a3.5 3.5 0 0 1 3.5-3.5zm0-2.5h-8.425a6.008 6.008 0 0 0-6 6v13.87a4.508 4.508 0 0 0 4.5 4.5h11.419a4.508 4.508 0 0 0 4.5-4.5V21.6a6 6 0 0 0-6-6"/>
            <path data-name="선 4" transform="translate(30.563 23.213)" style="stroke:#000;stroke-linecap:round;stroke-miterlimit:10;stroke-width:2.5px;fill:none" d="M0 0h3.094"/>
            <path data-name="선 5" transform="translate(30.563 27.786)" style="stroke:#000;stroke-linecap:round;stroke-miterlimit:10;stroke-width:2.5px;fill:none" d="M0 0h3.094"/>
            <path data-name="선 6" transform="translate(30.563 32.359)" style="stroke:#000;stroke-linecap:round;stroke-miterlimit:10;stroke-width:2.5px;fill:none" d="M0 0h3.094"/>
            <path data-name="패스 8155" d="M4.366 21.306a1.864 1.864 0 0 1 1.643.98L7.747 25.5a4.584 4.584 0 0 1 .568-.036 2.963 2.963 0 0 1 2.722 1.4L3.8 30.777a3.147 3.147 0 0 1 .663-3.5l-1.737-3.218a1.866 1.866 0 0 1 1.64-2.753m0-2.5a4.366 4.366 0 0 0-3.84 6.441l1.043 1.932a5.234 5.234 0 0 0 .031 4.786l1.188 2.2 2.2-1.188 7.237-3.908 2.2-1.187-1.188-2.2a5.257 5.257 0 0 0-3.982-2.648L8.209 21.1a4.362 4.362 0 0 0-3.843-2.292"/>
            <path data-name="패스 8156" d="M8.174 30.221a4.549 4.549 0 1 1-1.841 6.163 4.549 4.549 0 0 1 1.841-6.163z" style="stroke:#000;stroke-linecap:round;stroke-miterlimit:10;stroke-width:2.5px;fill:none"/>
            <path data-name="선 7" transform="translate(1.559 26.617)" style="stroke:#000;stroke-linecap:round;stroke-miterlimit:10;stroke-width:2.5px;fill:none" d="M0 7.118 13.183 0"/>
        </g>
    </g>
</svg>
