<svg xmlns="http://www.w3.org/2000/svg" width="48" height="48" viewBox="0 0 48 48">
    <path data-name="사각형 283" style="fill:none" d="M0 0h48v48H0z"/>
    <g data-name="그룹 504">
        <path data-name="패스 8165" d="M40.165 12.153h-8.468v-3.9A1.256 1.256 0 0 0 30.443 7H17.564a1.256 1.256 0 0 0-1.255 1.255v3.9H7.834a3.834 3.834 0 0 0-3.831 3.828V35.17A3.835 3.835 0 0 0 7.834 39h32.331a3.836 3.836 0 0 0 3.831-3.83V15.983a3.835 3.835 0 0 0-3.831-3.83m-10.976 0H18.817V9.508h10.372zm-22.677 3.83a1.325 1.325 0 0 1 1.322-1.323h32.331a1.326 1.326 0 0 1 1.323 1.323V35.17a1.323 1.323 0 0 1-1.323 1.321H7.834a1.323 1.323 0 0 1-1.322-1.321z"/>
        <path data-name="패스 8166" d="M13.235 13a1.25 1.25 0 0 1 1.25 1.25v22.611a1.25 1.25 0 0 1-2.5 0V14.25a1.25 1.25 0 0 1 1.25-1.25"/>
        <path data-name="패스 8167" d="M15.735 39.75a1.25 1.25 0 0 1-1.25 1.25h-2.5a1.25 1.25 0 0 1 0-2.5h2.5a1.25 1.25 0 0 1 1.25 1.25"/>
        <path data-name="패스 8168" d="M37.235 39.75a1.25 1.25 0 0 1-1.25 1.25h-2.5a1.25 1.25 0 0 1 0-2.5h2.5a1.25 1.25 0 0 1 1.25 1.25"/>
        <path data-name="패스 8169" d="M34.735 13a1.25 1.25 0 0 1 1.25 1.25v22.611a1.25 1.25 0 0 1-2.5 0V14.25a1.25 1.25 0 0 1 1.25-1.25"/>
    </g>
</svg>
