<svg xmlns="http://www.w3.org/2000/svg" width="48" height="48" viewBox="0 0 48 48">
    <path data-name="사각형 283" style="fill:none" d="M0 0h48v48H0z"/>
    <path data-name="패스 8151" d="M24 4.004a13.918 13.918 0 0 0-13.866 13.823v12.3a13.866 13.866 0 0 0 27.733 0V17.871A13.882 13.882 0 0 0 24 4.004m1.018 9.192a1.588 1.588 0 0 1-2.078 0 1.142 1.142 0 0 0-1.658.015 1.283 1.283 0 0 0 0 1.658l.013.014a3.8 3.8 0 0 0 6.5-2.7v-.038a5.824 5.824 0 0 1 1.825 2.944 1.135 1.135 0 0 0 1.119.888h.7a.58.58 0 0 1 0 1.16h-.656a1.134 1.134 0 0 0-1.118.878 5.831 5.831 0 0 1-11.29.01 1.136 1.136 0 0 0-1.12-.888h-.7a.58.58 0 1 1 0-1.16h.656a1.131 1.131 0 0 0 1.123-.873 5.845 5.845 0 0 1 5.668-4.38 1.3 1.3 0 0 1 1.018.439 1.437 1.437 0 0 1 .439 1.016 1.364 1.364 0 0 1-.439 1.017M20.344 23.86a8.221 8.221 0 0 0 7.312 0 3.67 3.67 0 0 1 3.079 2 19.2 19.2 0 0 1-5.5 3.65c-.241.11-.472.22-.7.329-.189.09-.378.18-.573.27-.406-.2-.844-.4-1.283-.6a19.927 19.927 0 0 1-5.491-3.642 3.875 3.875 0 0 1 3.156-2.007m5.881 7.763a21.4 21.4 0 0 0 9.3-7.914v6.42a11.53 11.53 0 0 1-19.346 8.475 29.949 29.949 0 0 1 10.046-6.977m3.8-9.526a9.132 9.132 0 0 0 1.621-2.624 2.923 2.923 0 0 0 0-5.832 8.19 8.19 0 0 0-7.652-5.259 8.274 8.274 0 0 0-7.642 5.255 2.923 2.923 0 0 0 0 5.831 8.3 8.3 0 0 0 1.626 2.625 5.9 5.9 0 0 0-2.362 1.972 15.884 15.884 0 0 1-3.137-6.284 11.528 11.528 0 0 1 23.055-.054 15.653 15.653 0 0 1-3.14 6.338 5.9 5.9 0 0 0-2.364-1.972m-8.585 9.37a29.533 29.533 0 0 0-6.826 5.371 11.692 11.692 0 0 1-2.139-6.709v-6.4a20.871 20.871 0 0 0 8.965 7.738"/>
</svg>
