<svg id="benefit-icon-13" xmlns="http://www.w3.org/2000/svg" width="48" height="48" viewBox="0 0 48 48">
  <defs>
    <style>
      .cls-1 {
        fill: none;
      }
    </style>
  </defs>
  <rect id="사각형_283" data-name="사각형 283" class="cls-1" width="48" height="48"/>
  <g id="그룹_498" data-name="그룹 498" transform="translate(4.364 6.078)">
    <path id="패스_8157" data-name="패스 8157" d="M35.683,16.426h2.442a1.148,1.148,0,0,1,.954,1.783l-3.818,5.745a1.144,1.144,0,0,1-1.906,0l-3.814-5.733a1.147,1.147,0,0,1,.953-1.784h2.269c-.092-.55-.149-1.067-.252-1.571A14.893,14.893,0,1,0,14.978,32.558a14.534,14.534,0,0,0,12.494-3.247,1.521,1.521,0,0,1,2.153.056,1.49,1.49,0,0,1,.24.334,1.471,1.471,0,0,1-.377,1.825A17.867,17.867,0,0,1,3.729,28.935,18.085,18.085,0,0,1,5.567,4.885a17.883,17.883,0,0,1,29.646,8.764c.207.838.3,1.7.436,2.559.011.057.023.126.034.218"/>
    <path id="패스_8158" data-name="패스 8158" d="M9.891,12.863a4.177,4.177,0,0,1,2.76-.871,4.515,4.515,0,0,1,2,.407,2.859,2.859,0,0,1,1.68,2.681,2.766,2.766,0,0,1-.52,1.7,2.548,2.548,0,0,1-1.24.935v.065a2.686,2.686,0,0,1,1.448,1.023,3.2,3.2,0,0,1,.52,1.888,3.333,3.333,0,0,1-.44,1.713,3,3,0,0,1-1.3,1.176,4.6,4.6,0,0,1-2.056.424A4.552,4.552,0,0,1,9.8,23.095a3.411,3.411,0,0,1-1.2-2.687h2.176a1.747,1.747,0,0,0,.536,1.256,1.948,1.948,0,0,0,1.384.471,1.664,1.664,0,0,0,1.256-.456A1.622,1.622,0,0,0,14.4,20.5a1.545,1.545,0,0,0-.608-1.376,3.386,3.386,0,0,0-1.888-.416h-.464v-1.84H11.9q2.271,0,2.272-1.521a1.4,1.4,0,0,0-.408-1.072,1.652,1.652,0,0,0-1.176-.384,1.57,1.57,0,0,0-1.16.408,1.65,1.65,0,0,0-.472,1.033H8.763a3.263,3.263,0,0,1,1.128-2.473"/>
    <path id="패스_8159" data-name="패스 8159" d="M19.315,13.607a3.634,3.634,0,0,1,3.32-1.567,3.634,3.634,0,0,1,3.32,1.567,8.036,8.036,0,0,1,1,4.336,8.15,8.15,0,0,1-1,4.368,3.62,3.62,0,0,1-3.32,1.584,3.62,3.62,0,0,1-3.32-1.584,8.141,8.141,0,0,1-1-4.368,8.027,8.027,0,0,1,1-4.336m5.28,2.345a2.7,2.7,0,0,0-.607-1.32,1.717,1.717,0,0,0-1.353-.512,1.713,1.713,0,0,0-1.352.512,2.679,2.679,0,0,0-.608,1.32,11.024,11.024,0,0,0-.152,1.991,12.114,12.114,0,0,0,.144,2.04,2.561,2.561,0,0,0,.608,1.328,1.756,1.756,0,0,0,1.36.5,1.756,1.756,0,0,0,1.36-.5,2.562,2.562,0,0,0,.609-1.328,12.233,12.233,0,0,0,.143-2.04,10.933,10.933,0,0,0-.152-1.991"/>
  </g>
</svg>
