<svg xmlns="http://www.w3.org/2000/svg" width="48" height="48" viewBox="0 0 48 48">
    <path data-name="사각형 283" style="fill:none" d="M0 0h48v48H0z"/>
    <path data-name="패스 102" d="M25.589 0H4.523A4.528 4.528 0 0 0 0 4.523v27.826a4.529 4.529 0 0 0 4.523 4.524H6.5v1.9a1.2 1.2 0 0 0 .612 1.048 1.217 1.217 0 0 0 .589.153 1.2 1.2 0 0 0 .624-.174l3.167-1.926 3.217 1.964a1.2 1.2 0 0 0 1.827-1.026v-1.94h9.053a4.528 4.528 0 0 0 4.523-4.523V4.523A4.528 4.528 0 0 0 25.589 0M8.9 36.634v-4.283h5.232v4.318l-2.016-1.23a1.2 1.2 0 0 0-1.25 0zm7.633-4.283h9.287a4.245 4.245 0 0 0 1.886-.441v.439a2.123 2.123 0 0 1-2.121 2.121h-9.049zM4.862 31.15a1.2 1.2 0 0 0 1.2 1.2H6.5v2.12H4.523A2.123 2.123 0 0 1 2.4 32.349v-2.676a1.889 1.889 0 0 1 1.89-1.887h21.532a4.261 4.261 0 0 0 1.887-.44v.716a1.888 1.888 0 0 1-1.887 1.886H6.063a1.2 1.2 0 0 0-1.2 1.2m20.961-5.765H7.675V2.4h17.914a2.124 2.124 0 0 1 2.121 2.124V23.5a1.889 1.889 0 0 1-1.887 1.887M5.276 2.4v22.989H4.29a4.255 4.255 0 0 0-1.887.441V4.523A2.124 2.124 0 0 1 4.524 2.4z" transform="translate(8.944 3.995)" style="fill:#101010"/>
</svg>
