<svg xmlns="http://www.w3.org/2000/svg" width="48" height="48" viewBox="0 0 48 48">
    <path data-name="사각형 283" style="fill:none" d="M0 0h48v48H0z"/>
    <g data-name="그룹 351">
        <path data-name="패스 117" d="M37.665 17.035V7.221A1.223 1.223 0 0 0 36.448 6H11.55a1.22 1.22 0 0 0-1.216 1.221v9.814L6 21.029V38.01A3.955 3.955 0 0 0 9.943 42h28.114A3.955 3.955 0 0 0 42 38.013V21.029zm0 5.712v-2.415l1.362 1.243zm-5.749 8.136 7.649-6.592v13.461zm-21.877 8.683 12.926-11.62a1.546 1.546 0 0 1 2.071 0l12.923 11.62zm11.3-13.432-3.28 2.946-5.291-4.39V8.434H35.23v16.409l-5.11 4.4-3.457-3.108a3.975 3.975 0 0 0-5.327 0M8.435 37.751V24.225l7.824 6.5zm.557-16.194 1.342-1.226v2.339z"/>
        <path data-name="패스 118" d="M24 15.793a1.192 1.192 0 0 1-.835-.345 1.18 1.18 0 1 1 2.016-.835 1.178 1.178 0 1 0 2.356 0 3.539 3.539 0 0 0-2.444-3.363v-.568a1.178 1.178 0 1 0-2.356 0v.628A3.537 3.537 0 0 0 24 18.15a1.179 1.179 0 1 1-1.179 1.18 1.178 1.178 0 0 0-2.356 0 3.559 3.559 0 0 0 .694 2.1 3.5 3.5 0 0 0 1.579 1.2v.473a1.179 1.179 0 1 0 2.357 0v-.413A3.536 3.536 0 0 0 24 15.793"/>
    </g>
</svg>
