<svg xmlns="http://www.w3.org/2000/svg" width="48" height="48" viewBox="0 0 48 48">
    <path data-name="사각형 283" style="fill:none" d="M0 0h48v48H0z"/>
    <g data-name="그룹 325" transform="translate(2 9)">
        <rect data-name="사각형 284" width="33.5" height="27.693" rx="3.75" transform="translate(5.75 1.25)" style="fill:#fff"/>
        <path data-name="패스 94" d="M35.5 2.5A2.5 2.5 0 0 1 38 5v20.193a2.5 2.5 0 0 1-2.5 2.5h-26a2.5 2.5 0 0 1-2.5-2.5V5a2.5 2.5 0 0 1 2.5-2.5zm0-2.5h-26a5 5 0 0 0-5 5v20.193a5 5 0 0 0 5 5h26a5 5 0 0 0 5-5V5a5 5 0 0 0-5-5" style="fill:#101010"/>
        <path data-name="패스 95" d="M4.991 29.75a3.745 3.745 0 0 1-3.741-3.741v-.7a.249.249 0 0 1 .249-.249h42a.248.248 0 0 1 .248.249v.7a3.745 3.745 0 0 1-3.74 3.741z" style="fill:#fff"/>
        <path data-name="패스 96" d="M42.482 26.307a2.494 2.494 0 0 1-2.473 2.193H4.99a2.5 2.5 0 0 1-2.473-2.193zm1.019-2.5H1.5a1.5 1.5 0 0 0-1.5 1.5v.7A4.99 4.99 0 0 0 4.99 31h35.019A4.991 4.991 0 0 0 45 26.009v-.7a1.5 1.5 0 0 0-1.5-1.5" style="fill:#101010"/>
        <path data-name="패스 97" d="M19 27.908h7a2.69 2.69 0 0 0 2.5-2.844.536.536 0 0 0-.5-.564H17a.537.537 0 0 0-.5.568 2.69 2.69 0 0 0 2.5 2.84" transform="translate(0 -.69)" style="fill:#101010"/>
    </g>
</svg>
