<svg xmlns="http://www.w3.org/2000/svg" width="48" height="48" viewBox="0 0 48 48">
    <path data-name="사각형 283" style="fill:none" d="M0 0h48v48H0z"/>
    <g data-name="그룹 329">
        <path data-name="패스 99" d="M38.138 13.46a3.4 3.4 0 0 0-2.687-.566 4.416 4.416 0 0 0-1.818.881c-1.741-2.739-8.306-3.7-11.109-3.992l-.12-.006a1.2 1.2 0 0 0-.12 2.387c6.692.692 9.4 2.456 9.4 3.076 0 1-4.983 3.331-14.646 3.331s-14.64-2.344-14.64-3.34c0-.495 2.109-2.19 8.568-2.982a1.193 1.193 0 0 0 .8-.457 1.176 1.176 0 0 0 .234-.874 1.2 1.2 0 0 0-1.19-1.049l-.137.008C8.169 10.177 0 11.448 0 15.231a17.138 17.138 0 0 0 4.955 11.977C1.667 28.215 0 29.607 0 31.349 0 35.254 8.559 37 17.04 37s17.041-1.749 17.041-5.654c0-1.731-1.667-3.123-4.955-4.14q.2-.2.394-.408c7.318-.228 9.453-4.594 10.033-6.467.839-2.737.217-5.757-1.415-6.874M2.393 31.349c0-.357 1.205-1.416 4.775-2.259a16.9 16.9 0 0 0 19.744 0c3.569.835 4.774 1.9 4.774 2.259 0 .975-4.983 3.26-14.647 3.26s-14.646-2.285-14.646-3.26m14.646-1.471A14.674 14.674 0 0 1 2.8 18.571c3.02 1.5 8.289 2.385 14.242 2.385s11.224-.887 14.244-2.385a14.676 14.676 0 0 1-14.247 11.307M31.51 24.2a17.006 17.006 0 0 0 2.479-7.371 4 4 0 0 1 1.945-1.594 1.046 1.046 0 0 1 .854.2c.582.4 1.066 2.274.468 4.2-.431 1.407-1.749 3.825-5.746 4.566" style="fill:#101010" transform="translate(4.037 5.498)"/>
        <path data-name="패스 100" d="M14.419 9.735a1.224 1.224 0 0 0 .848-.349 1.2 1.2 0 0 0 0-1.689c-1.052-1.051-.78-1.539-.126-2.719.577-1.042 1.452-2.615.282-4.432A1.2 1.2 0 0 0 14.415 0a1.171 1.171 0 0 0-.644.191 1.2 1.2 0 0 0-.358 1.65c.346.541.241.887-.365 1.975-.676 1.208-1.808 3.231.523 5.571a1.179 1.179 0 0 0 .848.348" style="fill:#101010" transform="translate(4.037 5.498)"/>
        <path data-name="패스 101" d="M17.246 14.165a1.179 1.179 0 0 0 .849.348 1.227 1.227 0 0 0 .848-.349 1.2 1.2 0 0 0 0-1.688c-1.053-1.053-.781-1.541-.125-2.721.577-1.042 1.449-2.615.281-4.43a1.2 1.2 0 0 0-1.009-.547 1.181 1.181 0 0 0-.644.191 1.2 1.2 0 0 0-.357 1.651c.346.539.24.885-.366 1.976-.675 1.208-1.806 3.231.523 5.569" style="fill:#101010" transform="translate(4.037 5.498)"/>
    </g>
</svg>
