<svg xmlns="http://www.w3.org/2000/svg" width="48" height="48" viewBox="0 0 48 48">
    <path data-name="사각형 283" style="fill:none" d="M0 0h48v48H0z"/>
    <g data-name="그룹 502">
        <path data-name="패스 8160" d="M37.293 10.256h-4.63v-1.2a1.336 1.336 0 0 0-1.3-1.3h-2a5.714 5.714 0 0 0-10.734 0h-1.917a1.247 1.247 0 0 0-1.3 1.3v1.2h-4.707a1.269 1.269 0 0 0-1.3 1.229v31.139a1.3 1.3 0 0 0 1.3 1.376h26.588a1.337 1.337 0 0 0 1.3-1.3V11.559a1.246 1.246 0 0 0-1.3-1.3m-16.41-1.02A3.182 3.182 0 0 1 24.005 6.6a3.077 3.077 0 0 1 3.117 2.628 1.319 1.319 0 0 0 1.3 1.127h1.641v2.331H17.941v-2.327h1.716a1.233 1.233 0 0 0 1.226-1.12m-4.244 6.052h14.723a1.287 1.287 0 0 0 1.3-1.3v-1.2h3.4V41.4H12.005V12.788h3.4v1.2a1.268 1.268 0 0 0 1.229 1.3"/>
        <path data-name="패스 8161" d="M24.005 27.352a1.25 1.25 0 0 1-1.25-1.25V19.9a1.25 1.25 0 0 1 2.5 0v6.2a1.25 1.25 0 0 1-1.25 1.25"/>
        <path data-name="패스 8162" d="M28.352 23a1.25 1.25 0 0 1-1.25 1.25h-6.2a1.25 1.25 0 1 1 0-2.5h6.2a1.25 1.25 0 0 1 1.25 1.25"/>
        <path data-name="패스 8163" d="M32 32a1.25 1.25 0 0 1-1.25 1.25H17.324a1.25 1.25 0 0 1 0-2.5H30.75A1.25 1.25 0 0 1 32 32"/>
        <path data-name="패스 8164" d="M32 36.556a1.25 1.25 0 0 1-1.25 1.25H17.324a1.25 1.25 0 0 1 0-2.5H30.75a1.25 1.25 0 0 1 1.25 1.25"/>
    </g>
</svg>
