<svg xmlns="http://www.w3.org/2000/svg" width="48" height="48" viewBox="0 0 48 48">
    <path data-name="사각형 283" style="fill:none" d="M0 0h48v48H0z"/>
    <g data-name="그룹 347">
        <path data-name="패스 107" d="M14.392 19.65a1.216 1.216 0 0 1-.978-.489 1.281 1.281 0 0 1-.225-1.075 13.11 13.11 0 0 1 1.49-4.158 14.9 14.9 0 0 1 5.583-5.55 16.619 16.619 0 0 1 8.211-2.148 1.211 1.211 0 0 1 1.073.643 1.337 1.337 0 0 1 .163.6 1.27 1.27 0 0 1-1.244 1.25c-.059 0-.119 0-.178.006a2.683 2.683 0 0 0-.338.1 2.723 2.723 0 0 0-.276.151l-.223.155a5.147 5.147 0 0 0-.674.691l-.24.34a9.547 9.547 0 0 0-.346.567 12.9 12.9 0 0 0-.572 1.162 20.261 20.261 0 0 0-1.218 4.727c-.077.6-.134 1.192-.174 1.793a1.273 1.273 0 0 1-1.242 1.235zM23.84 9.472c-.29.1-.578.2-.859.318a14.721 14.721 0 0 0-1.957 1.019c-.288.18-.567.371-.841.569l-.123.091c-.055.041-.386.31-.472.385a13.77 13.77 0 0 0-1.414 1.395c-.091.1-.179.21-.267.316l-.206.261q-.291.393-.553.808a12.432 12.432 0 0 0-.867 1.641c-.1.248-.19.5-.274.754l-.043.131h5.882l.01-.089a27.5 27.5 0 0 1 .459-2.852 18.514 18.514 0 0 1 .885-2.955 15.054 15.054 0 0 1 .758-1.649l.123-.225z"/>
        <path data-name="패스 108" d="M28.433 8.716a1.255 1.255 0 0 1-1.2-1.243V6.342a1.243 1.243 0 0 1 2.486 0v1.131a1.265 1.265 0 0 1-1.239 1.242z"/>
        <path data-name="패스 109" d="M28.433 38.877a1.255 1.255 0 0 1-1.2-1.244V18.4a1.243 1.243 0 0 1 2.486 0c.009.627.006 1.22 0 1.813V37.63a1.266 1.266 0 0 1-1.238 1.243z"/>
        <path data-name="패스 110" d="M33.788 19.641H22.971a1.3 1.3 0 0 1-.927-.419 1.1 1.1 0 0 1-.316-.831c.023-.3.046-.609.076-.915a22.787 22.787 0 0 1 1.61-6.749 7.93 7.93 0 0 1 3.065-3.943 3.963 3.963 0 0 1 1.941-.556c.082 0 .165 0 .247.01a4.147 4.147 0 0 1 2.161.809 9.882 9.882 0 0 1 3.034 4.567 23.837 23.837 0 0 1 1.321 6.664.939.939 0 0 1 .01.118 1.124 1.124 0 0 1-.468.965 1.273 1.273 0 0 1-.676.276l-.148.009zm-7.252-9.483a8.745 8.745 0 0 0-.346.566 12.676 12.676 0 0 0-.575 1.17 20.26 20.26 0 0 0-1.215 4.729l-.065.538H32.6l-.065-.543a20.009 20.009 0 0 0-1.226-4.756 11.353 11.353 0 0 0-.572-1.16 7.3 7.3 0 0 0-.335-.543c-.032-.052-.068-.1-.1-.155l.24-.225-.33.041-.04.01a5.277 5.277 0 0 0-.672-.7l-.23-.16a4.478 4.478 0 0 0-.293-.16 2.945 2.945 0 0 0-.351-.094h-.154c-.06 0-.118 0-.18.006a2.692 2.692 0 0 0-.335.1 2.548 2.548 0 0 0-.277.152l-.225.154a5.291 5.291 0 0 0-.671.688l-.23-.023.137.143-.019.027z"/>
        <path data-name="패스 111" d="M13.033 38.876a1.418 1.418 0 0 1-1.011-.469l-5.4-5.825q-1.077-1.16-2.158-2.309a1.3 1.3 0 0 1 0-1.808 1.2 1.2 0 0 1 .893-.365 1.234 1.234 0 0 1 .9.366s1.088 1.152 1.423 1.514l5.851 6.307.555.03 2.066.01h26.472a1.307 1.307 0 0 1 1.276 1.279 1.158 1.158 0 0 1-.341.854 1.324 1.324 0 0 1-.934.416H13.033z"/>
        <path data-name="패스 112" d="M22.7 38.7a1.223 1.223 0 0 1-.9-.366l-2.335-2.513c-.114-.123-.226-.249-.34-.376a9.853 9.853 0 0 0-.936-.959 3.79 3.79 0 0 0-.527-.309 4.04 4.04 0 0 0-.593-.164 6.615 6.615 0 0 0-.572-.021l-.59.005H8.63a1.3 1.3 0 0 1-1.273-1.279 1.159 1.159 0 0 1 .34-.854 1.324 1.324 0 0 1 .934-.416c.34 0 .634-.006.928-.006l1.766.006h3.969l.973-.008a5.869 5.869 0 0 1 2.146.305 5.049 5.049 0 0 1 1.848 1.185l3.34 3.6a1.307 1.307 0 0 1 0 1.808 1.208 1.208 0 0 1-.9.366"/>
        <path data-name="패스 113" d="M11.72 42.892a1.48 1.48 0 0 1-.322-.037 1.2 1.2 0 0 1-.757-.592 1.228 1.228 0 0 1-.131-.971l1.271-4.024a1.3 1.3 0 0 1 1.251-.93 1.48 1.48 0 0 1 .322.037 1.209 1.209 0 0 1 .756.592 1.229 1.229 0 0 1 .131.971l-1.271 4.024a1.3 1.3 0 0 1-1.25.93"/>
        <path data-name="패스 114" d="M38.662 42.9a1.262 1.262 0 0 1-1.121-.625l-2.056-4.024a1.315 1.315 0 0 1 .458-1.751 1.133 1.133 0 0 1 .616-.171 1.267 1.267 0 0 1 1.123.625l2.055 4.025a1.314 1.314 0 0 1-.458 1.751 1.142 1.142 0 0 1-.617.17"/>
        <path data-name="패스 115" d="M43.775 18.224a1.584 1.584 0 0 0-.021-.145 13.644 13.644 0 0 0-3.554-6.955 15.63 15.63 0 0 0-6.891-4.194 16.944 16.944 0 0 0-4.835-.7 1.27 1.27 0 0 0-.908.4 1.144 1.144 0 0 0-.334.846 1.27 1.27 0 0 0 1.242 1.238h.153a2.626 2.626 0 0 1 .353.1c.1.048.2.1.292.158l.231.161a5.424 5.424 0 0 1 .666.683l.1.129.141.213c.119.179.231.361.335.543a11.7 11.7 0 0 1 .555 1.133 20.137 20.137 0 0 1 1.236 4.786c.079.6.134 1.192.174 1.791a1.271 1.271 0 0 0 1.242 1.235h8.595a1.216 1.216 0 0 0 .122-.006.989.989 0 0 0 .214-.043l.107-.038a1.176 1.176 0 0 0 .632-.532 1.107 1.107 0 0 0 .167-.625 1.276 1.276 0 0 0-.019-.178m-8.67-1.063-.01-.089a22.4 22.4 0 0 0-1.215-5.457 14.7 14.7 0 0 0-.894-2l-.12-.215.239.076c.287.1.568.2.849.311a15.073 15.073 0 0 1 1.746.892c.292.176.576.359.854.554l.234.169.28.213.1.076a13.962 13.962 0 0 1 1.442 1.368c.175.193.342.393.517.607l.252.334c.1.138.2.279.291.424a12.251 12.251 0 0 1 1.008 1.876c.1.241.186.485.266.731l.043.131z"/>
        <path data-name="사각형 288" transform="translate(4.1 5.1)" style="fill:none" d="M0 0h39.8v37.8H0z"/>
    </g>
</svg>
