<svg xmlns="http://www.w3.org/2000/svg" width="48" height="48" viewBox="0 0 48 48">
    <path data-name="사각형 283" style="fill:none" d="M0 0h48v48H0z"/>
    <path data-name="패스 98" d="M1.159 0A1.176 1.176 0 0 0 0 1.194v8.491a6.746 6.746 0 0 0 5.555 6.628v6.7a4.07 4.07 0 0 0-2.872 3.873v9.069a4.049 4.049 0 0 0 8.1 0v-9.073a4.071 4.071 0 0 0-2.873-3.873v-6.7a6.747 6.747 0 0 0 5.556-6.628V1.194a1.177 1.177 0 1 0-2.353 0v6.1h-3.2v-6.1a1.177 1.177 0 1 0-2.353 0v6.1h-3.2v-6.1A1.175 1.175 0 0 0 1.159 0zm23 .016a6.743 6.743 0 0 0-6.732 6.732v2.92a6.746 6.746 0 0 0 5.556 6.632v6.712a4.072 4.072 0 0 0-2.872 3.874v9.069a4.049 4.049 0 0 0 8.1 0v-9.073a4.073 4.073 0 0 0-2.873-3.874V16.3a6.747 6.747 0 0 0 5.556-6.628V6.749A6.744 6.744 0 0 0 24.16.017zm0 2.353a4.344 4.344 0 0 1 4.379 4.379v2.92a4.379 4.379 0 0 1-8.758 0V6.749a4.344 4.344 0 0 1 4.38-4.379M2.353 9.646h8.759v.038a4.344 4.344 0 0 1-4.379 4.38 4.344 4.344 0 0 1-4.379-4.38zm4.38 15.539a1.667 1.667 0 0 1 1.7 1.7v9.07a1.7 1.7 0 0 1-3.393 0v-9.07a1.668 1.668 0 0 1 1.693-1.7zm17.427 0a1.667 1.667 0 0 1 1.7 1.7v9.07a1.7 1.7 0 0 1-3.392 0v-9.07a1.667 1.667 0 0 1 1.7-1.7" transform="translate(8.555 4)" style="fill:#101010"/>
</svg>
