<svg xmlns="http://www.w3.org/2000/svg" width="48" height="48" viewBox="0 0 48 48">
    <path data-name="사각형 283" style="fill:none" d="M0 0h48v48H0z"/>
    <path data-name="패스 106" d="M37.805 23.418h-9.689v-7.326a3.489 3.489 0 0 0-1.086-2.525 4.086 4.086 0 0 0 1.086-2.763c0-1.862-2.431-5.322-3.177-6.341a1.192 1.192 0 0 0-1.882 0c-.745 1.015-3.175 4.474-3.175 6.338a4.085 4.085 0 0 0 1.086 2.765 3.489 3.489 0 0 0-1.086 2.526v7.326h-9.687a3.511 3.511 0 0 0-3.507 3.507v15.9a1.169 1.169 0 0 0 1.168 1.167h32.287a1.168 1.168 0 0 0 1.168-1.168v-15.9a3.51 3.51 0 0 0-3.506-3.507M22.217 10.804a11 11 0 0 1 1.782-3.589 11.008 11.008 0 0 1 1.782 3.589 1.782 1.782 0 0 1-3.564 0m0 5.288a1.172 1.172 0 0 1 1.171-1.17h1.221a1.172 1.172 0 0 1 1.171 1.171v7.325h-3.563zm15.587 9.662a1.172 1.172 0 0 1 1.171 1.171v3.5a2.873 2.873 0 0 1-5.737 0 1.167 1.167 0 0 0-2.335 0 2.873 2.873 0 0 1-5.736 0 1.168 1.168 0 0 0-2.335 0 2.792 2.792 0 0 1-2.867 2.7 2.793 2.793 0 0 1-2.869-2.7 1.168 1.168 0 0 0-2.335 0 2.793 2.793 0 0 1-2.868 2.7 2.793 2.793 0 0 1-2.868-2.7V26.928a1.172 1.172 0 0 1 1.169-1.174zM9.023 34.62a5.307 5.307 0 0 0 6.907-1.016 5.3 5.3 0 0 0 8.071 0 5.306 5.306 0 0 0 8.073 0 5.3 5.3 0 0 0 6.9 1.02v7.039H9.023z"/>
</svg>
